<svg width="20" height="20" viewBox="0 0 20 20" fill="none" xmlns="http://www.w3.org/2000/svg">
<path d="M6.66669 4.29166C6.63654 4.29166 6.60526 4.27937 6.57962 4.25373C6.55397 4.22808 6.54169 4.1968 6.54169 4.16666V1.66666C6.54169 1.63651 6.55397 1.60523 6.57962 1.57958C6.60526 1.55394 6.63654 1.54166 6.66669 1.54166C6.69683 1.54166 6.72811 1.55394 6.75376 1.57958C6.7794 1.60523 6.79169 1.63651 6.79169 1.66666V4.16666C6.79169 4.1968 6.7794 4.22808 6.75376 4.25373C6.72811 4.27937 6.69683 4.29166 6.66669 4.29166Z" fill="#793EF5" stroke="#793EF5"/>
<path d="M13.3333 4.29166C13.3032 4.29166 13.2719 4.27937 13.2462 4.25373C13.2206 4.22808 13.2083 4.1968 13.2083 4.16666V1.66666C13.2083 1.63651 13.2206 1.60523 13.2462 1.57958C13.2719 1.55394 13.3032 1.54166 13.3333 1.54166C13.3635 1.54166 13.3947 1.55394 13.4204 1.57958C13.446 1.60523 13.4583 1.63651 13.4583 1.66666V4.16666C13.4583 4.1968 13.446 4.22808 13.4204 4.25373C13.3947 4.27937 13.3635 4.29166 13.3333 4.29166Z" fill="#793EF5" stroke="#793EF5"/>
<path d="M17.0834 7.69998H2.91669C2.88654 7.69998 2.85526 7.6877 2.82962 7.66205C2.80397 7.63641 2.79169 7.60513 2.79169 7.57498C2.79169 7.54483 2.80397 7.51355 2.82962 7.48791C2.85526 7.46227 2.88654 7.44998 2.91669 7.44998H17.0834C17.1135 7.44998 17.1448 7.46227 17.1704 7.48791C17.1961 7.51355 17.2084 7.54483 17.2084 7.57498C17.2084 7.60513 17.1961 7.63641 17.1704 7.66205C17.1448 7.6877 17.1135 7.69998 17.0834 7.69998Z" fill="#793EF5" stroke="#793EF5"/>
<path d="M13.3333 18.4583H6.66667C5.24074 18.4583 4.18404 18.0498 3.48376 17.3496C2.78348 16.6493 2.375 15.5926 2.375 14.1667V7.08332C2.375 5.6574 2.78348 4.6007 3.48376 3.90042C4.18404 3.20014 5.24074 2.79166 6.66667 2.79166H13.3333C14.7593 2.79166 15.816 3.20014 16.5162 3.90042C17.2165 4.6007 17.625 5.6574 17.625 7.08332V14.1667C17.625 15.5926 17.2165 16.6493 16.5162 17.3496C15.816 18.0498 14.7593 18.4583 13.3333 18.4583ZM6.66667 3.04166C5.40151 3.04166 4.36464 3.34907 3.64853 4.06519C2.93242 4.7813 2.625 5.81817 2.625 7.08332V14.1667C2.625 15.4318 2.93242 16.4687 3.64853 17.1848C4.36464 17.9009 5.40151 18.2083 6.66667 18.2083H13.3333C14.5985 18.2083 15.6354 17.9009 16.3515 17.1848C17.0676 16.4687 17.375 15.4318 17.375 14.1667V7.08332C17.375 5.81817 17.0676 4.7813 16.3515 4.06519C15.6354 3.34907 14.5985 3.04166 13.3333 3.04166H6.66667Z" fill="#793EF5" stroke="#793EF5"/>
<path d="M7.08333 12.0833C6.975 12.0833 6.86666 12.0583 6.76666 12.0167C6.66666 11.975 6.57501 11.9167 6.49167 11.8417C6.41667 11.7583 6.35832 11.6667 6.31666 11.5667C6.27499 11.4667 6.25 11.3583 6.25 11.25C6.25 11.0333 6.34167 10.8167 6.49167 10.6583C6.57501 10.5833 6.66666 10.525 6.76666 10.4833C6.91666 10.4167 7.08334 10.4 7.25001 10.4333C7.30001 10.4417 7.35 10.4583 7.4 10.4833C7.45 10.5 7.5 10.525 7.55 10.5583C7.59166 10.5917 7.63333 10.625 7.67499 10.6583C7.70833 10.7 7.74999 10.7417 7.77499 10.7833C7.80832 10.8333 7.83334 10.8833 7.85001 10.9333C7.87501 10.9833 7.89168 11.0333 7.90001 11.0833C7.90834 11.1417 7.91667 11.1917 7.91667 11.25C7.91667 11.4667 7.82499 11.6833 7.67499 11.8417C7.51666 11.9917 7.3 12.0833 7.08333 12.0833Z" fill="#793EF5"/>
<path d="M10 12.0833C9.78335 12.0833 9.56669 11.9916 9.40836 11.8416C9.37503 11.8 9.3417 11.7583 9.30836 11.7167C9.27503 11.6667 9.25001 11.6167 9.23334 11.5667C9.20834 11.5167 9.19168 11.4667 9.18334 11.4167C9.17501 11.3583 9.16669 11.3083 9.16669 11.25C9.16669 11.1417 9.19168 11.0333 9.23334 10.9333C9.27501 10.8333 9.33336 10.7417 9.40836 10.6583C9.64169 10.425 10.0167 10.35 10.3167 10.4833C10.425 10.525 10.5083 10.5833 10.5917 10.6583C10.7417 10.8167 10.8334 11.0333 10.8334 11.25C10.8334 11.3083 10.825 11.3583 10.8167 11.4167C10.8084 11.4667 10.7917 11.5167 10.7667 11.5667C10.75 11.6167 10.725 11.6667 10.6917 11.7167C10.6583 11.7583 10.625 11.8 10.5917 11.8416C10.5083 11.9166 10.425 11.975 10.3167 12.0167C10.2167 12.0583 10.1084 12.0833 10 12.0833Z" fill="#793EF5"/>
<path d="M7.08333 15C6.975 15 6.86666 14.975 6.76666 14.9334C6.66666 14.8917 6.57501 14.8333 6.49167 14.7583C6.41667 14.675 6.35832 14.5917 6.31666 14.4833C6.27499 14.3833 6.25 14.275 6.25 14.1667C6.25 13.95 6.34167 13.7333 6.49167 13.575C6.57501 13.5 6.66666 13.4417 6.76666 13.4C7.075 13.2667 7.44166 13.3417 7.67499 13.575C7.70833 13.6167 7.74999 13.6583 7.77499 13.7C7.80832 13.75 7.83334 13.8 7.85001 13.85C7.87501 13.9 7.89168 13.95 7.90001 14.0083C7.90834 14.0583 7.91667 14.1167 7.91667 14.1667C7.91667 14.3833 7.82499 14.6 7.67499 14.7583C7.51666 14.9083 7.3 15 7.08333 15Z" fill="#793EF5"/>
</svg>
