<svg width="28" height="28" viewBox="0 0 28 28" fill="none" xmlns="http://www.w3.org/2000/svg">
<path d="M11.48 8.35333C11.48 9.74166 12.6116 10.8733 14 10.8733C15.3883 10.8733 16.52 9.74166 16.52 8.35333C16.52 6.96499 15.3883 5.83333 14 5.83333" stroke="#793EF5" stroke-width="1.5" stroke-linecap="round" stroke-linejoin="round"/>
<path d="M7.92167 22.1667C9.31001 22.1667 10.4417 21.035 10.4417 19.6467C10.4417 18.2583 9.31001 17.1267 7.92167 17.1267C6.53334 17.1267 5.40167 18.2583 5.40167 19.6467C5.40167 21.035 6.52167 22.1667 7.92167 22.1667Z" stroke="#793EF5" stroke-width="1.5" stroke-linecap="round" stroke-linejoin="round"/>
<path d="M20.0783 22.1667C21.4667 22.1667 22.5984 21.035 22.5984 19.6467C22.5984 18.2583 21.4667 17.1267 20.0783 17.1267C18.69 17.1267 17.5583 18.2583 17.5583 19.6467C17.5583 21.035 18.69 22.1667 20.0783 22.1667Z" stroke="#793EF5" stroke-width="1.5" stroke-linecap="round" stroke-linejoin="round"/>
</svg>
